External Loads File
version=1
nRows=85
nColumns=13
Range=5.000000e-03-10 seconds
endheader
time 	forceRightX 	forceRightY 	forceRightZ 	pointRightX 	pointRightY 	pointRightZ 	forceLeftX 	forceLeftY 	forceLeftZ 	pointLeftX 	pointLeftY 	pointLeftZ 		
5.005000 7.080130 -29.252325 -0.000000 0.158149 0.403838 -0.149810 -63.927246 1011.689023 -0.000000 0.405502 0.238035 -0.385326
5.010000 3.158863 -31.659532 -0.000000 0.163424 0.413929 -0.150037 -48.550842 1034.892464 -0.000000 0.400357 0.228528 -0.385070
5.015000 -1.526179 -34.407433 -0.000000 0.169191 0.423628 -0.150229 -30.872741 1056.632119 -0.000000 0.394652 0.219479 -0.384788
5.020000 -6.750982 -37.204392 -0.000000 0.175435 0.432885 -0.150639 -10.690671 1075.939699 -0.000000 0.388403 0.210958 -0.384470
5.025000 -12.326312 -39.869785 -0.000000 0.182163 0.441721 -0.150980 12.491608 1091.824535 -0.000000 0.381627 0.202888 -0.384190
5.030000 -18.112444 -42.324717 -0.000000 0.189245 0.450465 -0.151504 38.855837 1103.307616 -0.000000 0.374350 0.195303 -0.383926
5.035000 -23.978286 -44.559814 -0.000000 0.197015 0.458204 -0.151638 67.039011 1109.588443 -0.000000 0.366651 0.188096 -0.383770
5.040000 -29.851715 -46.527235 -0.000000 0.205012 0.465334 -0.151931 96.209537 1110.075234 -0.000000 0.358544 0.181252 -0.383423
5.045000 -35.678797 -48.052640 -0.000000 0.213385 0.472152 -0.152338 125.794014 1104.326526 -0.000000 0.350067 0.175209 -0.383316
5.050000 -41.455597 -48.727264 -0.000000 0.222774 0.478224 -0.152239 156.724932 1091.844118 -0.000000 0.341262 0.169782 -0.383114
5.055000 -46.855508 -48.177243 -0.000000 0.231623 0.483971 -0.152735 183.917587 1073.112731 -0.000000 0.332248 0.164983 -0.382985
5.060000 -51.734767 -45.675480 -0.000000 0.240598 0.488713 -0.153245 208.348174 1047.949534 -0.000000 0.322993 0.160748 -0.382828
5.065000 -55.866616 -40.390406 -0.000000 0.250209 0.492787 -0.153364 230.990630 1015.952435 -0.000000 0.313659 0.157245 -0.382666
5.070000 -58.834962 -31.672133 -0.000000 0.259751 0.496328 -0.153581 250.047382 977.143610 -0.000000 0.304117 0.154356 -0.382584
5.075000 -60.254407 -18.967660 -0.000000 0.269464 0.499257 -0.153786 265.420296 931.078333 -0.000000 0.294525 0.152087 -0.382522
5.080000 -59.729970 -2.051972 -0.000000 0.279177 0.501473 -0.153906 276.365791 877.461825 -0.000000 0.284873 0.150518 -0.382400
5.085000 -56.955542 18.983793 -0.000000 0.288874 0.503049 -0.154038 282.420431 816.121241 -0.000000 0.275246 0.149735 -0.382323
5.090000 -51.758418 43.719449 -0.000000 0.298489 0.503789 -0.154205 283.136497 747.243401 -0.000000 0.265697 0.149594 -0.382329
5.095000 -44.243972 71.389861 -0.000000 0.307552 0.503918 -0.154036 277.453573 671.816465 -0.000000 0.256278 0.150342 -0.382299
5.100000 -34.681266 101.178394 -0.000000 0.316426 0.503352 -0.153929 266.234178 590.738410 -0.000000 0.247077 0.151764 -0.382204
5.105000 -23.663237 132.257390 -0.000000 0.324810 0.501874 -0.153839 249.512529 505.827579 -0.000000 0.238104 0.153968 -0.382106
5.110000 -11.951796 164.128731 -0.000000 0.332626 0.499702 -0.153320 227.883154 419.188868 -0.000000 0.229358 0.156911 -0.381937
5.115000 -0.141325 196.721781 -0.000000 0.340172 0.496770 -0.152838 202.636879 332.886695 -0.000000 0.220821 0.160580 -0.381705
5.120000 10.981281 230.275394 -0.000000 0.347371 0.492999 -0.152223 174.484879 249.406951 -0.000000 0.212631 0.164853 -0.381422
5.125000 20.862488 265.170393 -0.000000 0.354202 0.488472 -0.151557 144.585186 170.930282 -0.000000 0.204609 0.169652 -0.381167
5.130000 28.871364 301.714969 -0.000000 0.360480 0.483219 -0.150948 113.975131 99.486679 -0.000000 0.196852 0.175156 -0.380879
5.135000 35.257648 339.882138 -0.000000 0.367095 0.477182 -0.150591 83.860093 36.429398 -0.000000 0.189332 0.180851 -0.380573
5.140000 39.308330 379.389134 -0.000000 0.373200 0.470413 -0.149960 54.994021 -16.964078 -0.000000 0.182135 0.187129 -0.380355
5.145000 41.161945 419.537136 -0.000000 0.379018 0.463019 -0.149445 28.282575 -60.245476 -0.000000 0.175197 0.193875 -0.380097
5.150000 40.616176 459.409772 -0.000000 0.384551 0.455094 -0.149269 4.475218 -93.450274 -0.000000 0.168607 0.200949 -0.379928
5.155000 39.141079 497.814894 -0.000000 0.390035 0.446628 -0.149281 -16.206221 -117.060663 -0.000000 0.161579 0.208602 -0.378785
5.160000 34.600402 533.900553 -0.000000 0.394982 0.437521 -0.149280 -32.903173 -131.942670 -0.000000 0.155743 0.216788 -0.378623
5.165000 27.150152 566.841990 -0.000000 0.399652 0.428290 -0.149341 -45.399228 -139.266961 -0.000000 0.150373 0.225163 -0.378604
5.170000 17.759511 596.234847 -0.000000 0.403906 0.418489 -0.149292 -53.896786 -140.202558 -0.000000 0.145376 0.233949 -0.378503
5.175000 7.020289 622.239961 -0.000000 0.408538 0.408496 -0.149213 -58.615774 -135.964239 -0.000000 0.140858 0.243142 -0.378443
5.180000 -5.642117 645.431257 -0.000000 0.412312 0.398118 -0.149214 -59.628527 -127.910197 -0.000000 0.136839 0.252676 -0.378414
5.185000 -19.833939 666.544175 -0.000000 0.415590 0.387587 -0.149330 -57.370611 -117.250099 -0.000000 0.133384 0.262352 -0.378452
5.190000 -33.615674 686.408793 -0.000000 0.418399 0.376816 -0.149360 -52.611614 -104.899327 -0.000000 0.130376 0.272469 -0.378379
5.195000 -47.071654 705.674032 -0.000000 0.420674 0.365820 -0.149297 -45.787110 -91.735573 -0.000000 0.128078 0.282558 -0.378427
5.200000 -58.837734 724.797141 -0.000000 0.422455 0.354810 -0.149147 -37.547589 -78.269530 -0.000000 0.126471 0.292886 -0.378488
5.205000 -67.365769 744.063556 -0.000000 0.423824 0.343596 -0.149212 -28.422747 -64.821394 -0.000000 0.125507 0.303439 -0.378500
5.210000 -74.229140 763.342135 -0.000000 0.424363 0.332734 -0.149066 -18.583945 -51.739000 -0.000000 0.125180 0.313863 -0.378487
5.215000 -75.771134 782.910936 -0.000000 0.424926 0.321373 -0.148996 -8.564411 -39.189642 -0.000000 0.125521 0.324490 -0.378493
5.220000 -74.902350 802.415278 -0.000000 0.424368 0.310361 -0.149517 1.608534 -27.523751 -0.000000 0.126448 0.334946 -0.378553
5.225000 -68.158536 822.136784 -0.000000 0.423303 0.299351 -0.148718 11.603612 -17.057344 -0.000000 0.128056 0.346095 -0.378584
5.230000 -59.990611 841.680168 -0.000000 0.421605 0.288551 -0.148293 21.304810 -8.093524 -0.000000 0.130240 0.356577 -0.378768
5.235000 -48.843814 861.187577 -0.000000 0.419595 0.277712 -0.148274 30.371138 -0.960253 -0.000000 0.133074 0.366859 -0.378919
5.240000 -35.182063 880.549717 -0.000000 0.416954 0.267159 -0.148255 38.470995 4.050890 -0.000000 0.136467 0.377140 -0.379005
5.245000 -19.567361 899.545430 -0.000000 0.413694 0.256837 -0.148556 45.169098 6.716264 -0.000000 0.140502 0.387211 -0.379015
5.250000 -2.276387 917.847364 -0.000000 0.410044 0.246734 -0.148451 49.969757 6.920947 -0.000000 0.145154 0.397135 -0.379143
5.255000 16.034211 935.030225 -0.000000 0.405943 0.236898 -0.148400 52.428729 4.754795 -0.000000 0.150389 0.406789 -0.379433
5.260000 34.472700 950.628894 -0.000000 0.401290 0.227723 -0.148417 52.244068 0.532328 -0.000000 0.156245 0.416148 -0.379402
5.265000 54.172826 964.079234 -0.000000 0.396184 0.218556 -0.148398 49.326193 -5.391656 -0.000000 0.162662 0.425127 -0.379507
5.270000 73.596847 974.932722 -0.000000 0.390500 0.210161 -0.147773 43.826870 -12.491868 -0.000000 0.169570 0.433757 -0.379524
5.275000 93.635060 982.659848 -0.000000 0.384419 0.201984 -0.147668 36.057672 -20.428153 -0.000000 0.176996 0.442067 -0.379664
5.280000 113.646046 986.883670 -0.000000 0.377937 0.194085 -0.147616 26.415247 -28.840067 -0.000000 0.184917 0.449885 -0.379666
5.285000 131.814659 987.534416 -0.000000 0.371026 0.187264 -0.147514 15.391779 -37.401608 -0.000000 0.193200 0.457152 -0.379697
5.290000 148.355560 984.533480 -0.000000 0.363720 0.180695 -0.147428 3.451782 -45.890214 -0.000000 0.201358 0.463971 -0.379197
5.295000 163.805467 977.912819 -0.000000 0.356110 0.174845 -0.147451 -8.993908 -54.040292 -0.000000 0.210049 0.470211 -0.379132
5.300000 178.916510 967.734673 -0.000000 0.348191 0.169455 -0.147497 -21.599202 -61.495057 -0.000000 0.219304 0.476013 -0.379295
5.305000 195.380957 953.774813 -0.000000 0.339925 0.164685 -0.147617 -34.131686 -67.760917 -0.000000 0.229783 0.481253 -0.379719
5.310000 205.559284 937.578856 -0.000000 0.331627 0.160440 -0.147429 -45.688021 -72.647225 -0.000000 0.238842 0.485918 -0.379679
5.315000 215.789947 917.658180 -0.000000 0.323062 0.156861 -0.147294 -56.346227 -75.481056 -0.000000 0.248524 0.489972 -0.379731
5.320000 225.033476 893.728390 -0.000000 0.314414 0.153836 -0.147046 -65.709134 -75.855841 -0.000000 0.258505 0.493356 -0.379404
5.325000 232.409983 865.280645 -0.000000 0.305622 0.151406 -0.146795 -73.442179 -73.462078 -0.000000 0.268299 0.496083 -0.379518
5.330000 239.124558 831.066370 -0.000000 0.296730 0.149553 -0.146644 -79.470041 -67.915572 -0.000000 0.278443 0.498233 -0.379324
5.335000 243.514738 790.543960 -0.000000 0.287786 0.148254 -0.146374 -83.566412 -59.229345 -0.000000 0.288376 0.499614 -0.379483
5.340000 245.221279 742.980805 -0.000000 0.278874 0.147657 -0.146103 -85.717152 -47.467470 -0.000000 0.298161 0.500278 -0.379685
5.345000 244.000082 687.946749 -0.000000 0.269962 0.147727 -0.145773 -85.991882 -32.774787 -0.000000 0.307840 0.500182 -0.379989
5.350000 238.550948 625.912075 -0.000000 0.261240 0.148618 -0.145420 -84.485718 -15.516214 -0.000000 0.317129 0.499552 -0.380542
5.355000 229.915145 557.130454 -0.000000 0.252530 0.150138 -0.145125 -81.457453 4.191571 -0.000000 0.326644 0.498176 -0.380599
5.360000 215.650470 483.978113 -0.000000 0.244150 0.152478 -0.144863 -77.238405 25.745050 -0.000000 0.335119 0.496095 -0.381234
5.365000 197.341036 407.968804 -0.000000 0.235891 0.155602 -0.144696 -72.313618 49.149318 -0.000000 0.343150 0.493364 -0.382215
5.370000 175.458241 331.631437 -0.000000 0.228004 0.159340 -0.144666 -67.233025 74.365671 -0.000000 0.351021 0.490035 -0.382706
5.375000 150.902198 257.627090 -0.000000 0.220214 0.163790 -0.144826 -62.573351 101.614092 -0.000000 0.358353 0.485908 -0.383186
5.380000 124.670684 188.545678 -0.000000 0.212733 0.168752 -0.145279 -58.990150 131.291639 -0.000000 0.365215 0.481170 -0.383925
5.385000 98.425777 126.124392 -0.000000 0.205374 0.174258 -0.145434 -56.744276 164.040422 -0.000000 0.371960 0.475436 -0.384787
5.390000 73.128673 71.786395 -0.000000 0.198179 0.180280 -0.145312 -56.317054 200.258269 -0.000000 0.378415 0.469084 -0.385743
5.395000 49.829333 25.952995 -0.000000 0.190493 0.186766 -0.146049 -57.689781 240.243790 -0.000000 0.384410 0.462184 -0.386365
5.400000 29.137610 -11.480148 -0.000000 0.183562 0.193737 -0.146388 -61.343116 283.760225 -0.000000 0.389962 0.454381 -0.386873
5.405000 11.461396 -41.259825 -0.000000 0.176945 0.201257 -0.146624 -66.974892 330.346485 -0.000000 0.395203 0.446132 -0.387324
5.410000 -3.152735 -64.256269 -0.000000 0.170706 0.209226 -0.146855 -74.306154 379.160936 -0.000000 0.400121 0.437358 -0.387489
5.415000 -14.804711 -81.350413 -0.000000 0.164908 0.217592 -0.147000 -83.054162 428.974360 -0.000000 0.404757 0.428307 -0.387537
5.420000 -23.805476 -93.300748 -0.000000 0.159639 0.226498 -0.147104 -92.177090 478.395617 -0.000000 0.409108 0.418722 -0.387369
5.425000 -30.317143 -100.771780 -0.000000 0.154839 0.235629 -0.147234 -101.547062 525.942871 -0.000000 0.413124 0.408862 -0.387170
